# xmcd CD database file
#
# Track frame offsets:
#	150
#	16080
#	32432
#	54305
#	70562
#	89042
#	104512
#	117515
#	132455
#	149582
#	167055
#	183017
#	199085
#	218210
#	234207
#	253222
#	272727
#	304360
#	325442
#
# Disc length: 4621 seconds
#
# Revision: 16
# Processed by: cddbd v1.5.2PL0 Copyright (c) Steve Scherf et al.
# Submitted via: CDex 1.70beta2
#
DISCID=18120b13
DTITLE=Shania Twain - Come On Over
DYEAR=1998
DGENRE=Country
TTITLE0=Your're Still The One
TTITLE1=When
TTITLE2=From This Moment On
TTITLE3=Black Eyes Blue Tears
TTITLE4=I Won't Leave You Lonely
TTITLE5=I'm Holding On To Love (To Save My Life)
TTITLE6=Come On Over
TTITLE7=You've Got A Way (Notting Hill Version)
TTITLE8=Whatever You Do! Don't!
TTITLE9=Man! I Feel Like A Woman
TTITLE10=Love Gets Me Everytime
TTITLE11=Don't Be Stupid (You Know I Love You)
TTITLE12=That Don't Impress Me Much (Dance Mix)
TTITLE13=Honey, I'm Home
TTITLE14=If You Wanna Touch Her, Ask!
TTITLE15=Rock This Country
TTITLE16=(If You're Not In It For Love) I'm Outta Here (Live/Direct TV Mix)
TTITLE17=Love Gets Me Every Time (Dance Mix)
TTITLE18=Don't Be Stupid (You Know I Love You) (Extended Dance Mix)
EXTD=YEAR: 1998
EXTT0=
EXTT1=
EXTT2=
EXTT3=
EXTT4=
EXTT5=
EXTT6=
EXTT7=
EXTT8=
EXTT9=
EXTT10=
EXTT11=
EXTT12=
EXTT13=
EXTT14=
EXTT15=
EXTT16=
EXTT17=
EXTT18=
PLAYORDER=
